<svg width="8" height="8" viewBox="0 0 8 8" fill="none" xmlns="http://www.w3.org/2000/svg">
<g clip-path="url(#clip0_77_454)">
<path d="M6.33337 6.99997L6.33337 0.999971C6.33318 0.939224 6.31642 0.879679 6.28491 0.827746C6.25339 0.775812 6.20831 0.733457 6.15452 0.705239C6.10072 0.677021 6.04025 0.664009 5.97961 0.667603C5.91897 0.671198 5.86045 0.691263 5.81037 0.725638L1.47703 3.72564C1.29737 3.84997 1.29737 4.1493 1.47704 4.27397L5.81037 7.27397C5.86035 7.3087 5.91889 7.32906 5.97963 7.33285C6.04038 7.33664 6.10099 7.32371 6.1549 7.29547C6.20881 7.26722 6.25395 7.22475 6.28542 7.17265C6.31688 7.12055 6.33346 7.06083 6.33337 6.99997Z" fill="black"/>
</g>
<defs>
<clipPath id="clip0_77_454">
<rect width="8" height="8" fill="white" transform="translate(0 8) rotate(-90)"/>
</clipPath>
</defs>
</svg>
