<svg width="12" height="12" viewBox="0 0 12 12" fill="none" xmlns="http://www.w3.org/2000/svg">
<path d="M10.9823 5.38361L8.87294 7.20377L9.5156 9.9258C9.55105 10.0736 9.54192 10.2285 9.48936 10.3711C9.43679 10.5137 9.34315 10.6375 9.22025 10.7269C9.09736 10.8163 8.95074 10.8672 8.7989 10.8733C8.64706 10.8794 8.49682 10.8404 8.36716 10.7611L5.99997 9.30423L3.63138 10.7611C3.50173 10.8399 3.35168 10.8786 3.2001 10.8723C3.04852 10.8659 2.9022 10.8149 2.77957 10.7256C2.65693 10.6363 2.56346 10.5127 2.51093 10.3704C2.45839 10.228 2.44914 10.0734 2.48435 9.9258L3.12935 7.20377L1.01997 5.38361C0.905267 5.28447 0.822311 5.15374 0.781463 5.00774C0.740615 4.86174 0.743685 4.70694 0.79029 4.56267C0.836896 4.41841 0.924971 4.29107 1.04352 4.19656C1.16206 4.10205 1.30582 4.04456 1.45685 4.03127L4.22247 3.80814L5.28935 1.22627C5.34709 1.08555 5.44538 0.965194 5.57171 0.880486C5.69804 0.795778 5.8467 0.750549 5.9988 0.750549C6.1509 0.750549 6.29956 0.795778 6.42589 0.880486C6.55222 0.965194 6.6505 1.08555 6.70825 1.22627L7.77466 3.80814L10.5403 4.03127C10.6916 4.04406 10.8358 4.10123 10.9548 4.19561C11.0737 4.28999 11.1622 4.41738 11.2091 4.56182C11.256 4.70626 11.2592 4.86133 11.2184 5.0076C11.1775 5.15387 11.0944 5.28483 10.9795 5.38408L10.9823 5.38361Z" fill="#FFBF52"/>
</svg>
