<svg width="338" height="56" viewBox="0 0 338 56" fill="none" xmlns="http://www.w3.org/2000/svg">
<path d="M72.6328 45V29.2266C72.6328 27.3516 72.1719 25.875 71.25 24.7969C70.3281 23.7188 69.0312 23.1797 67.3594 23.1797C66.2812 23.1797 65.1953 23.5 64.1016 24.1406C63.0234 24.7656 62.1953 25.5 61.6172 26.3438V45H57.1641V9.60938H61.6172V22.6641C62.2109 21.7422 63.1641 20.9766 64.4766 20.3672C65.8047 19.7422 67.1719 19.4297 68.5781 19.4297C71.2344 19.4297 73.3125 20.3047 74.8125 22.0547C76.3281 23.8047 77.0859 26.1953 77.0859 29.2266V45H72.6328ZM109.355 32.8828H91.2609C91.2609 35.8203 92.0656 38.0781 93.675 39.6562C95.0969 41.0312 96.925 41.7188 99.1594 41.7188C101.706 41.7188 103.831 40.9766 105.534 39.4922L107.409 42.7031C106.722 43.3906 105.667 43.9844 104.245 44.4844C102.464 45.1406 100.48 45.4688 98.2922 45.4688C95.1359 45.4688 92.4562 44.3984 90.2531 42.2578C87.8 39.8984 86.5734 36.7266 86.5734 32.7422C86.5734 28.6016 87.8312 25.2812 90.3469 22.7812C92.5969 20.5469 95.2609 19.4297 98.3391 19.4297C101.917 19.4297 104.722 20.4375 106.753 22.4531C108.722 24.3906 109.706 26.9609 109.706 30.1641C109.706 31.1484 109.589 32.0547 109.355 32.8828ZM98.55 23.1797C96.5656 23.1797 94.9016 23.8203 93.5578 25.1016C92.2766 26.3203 91.55 27.8359 91.3781 29.6484H105.277C105.277 27.8516 104.714 26.3516 103.589 25.1484C102.355 23.8359 100.675 23.1797 98.55 23.1797ZM132.858 24.1875C131.889 23.5156 130.912 23.1797 129.928 23.1797C128.35 23.1797 126.967 23.9062 125.78 25.3594C124.608 26.8125 124.022 28.5625 124.022 30.6094V45H119.569V19.8984H124.022V23.9062C125.647 20.9219 128.061 19.4297 131.264 19.4297C132.061 19.4297 133.209 19.5703 134.709 19.8516L132.858 24.1875ZM163.814 32.8828H145.72C145.72 35.8203 146.525 38.0781 148.134 39.6562C149.556 41.0312 151.384 41.7188 153.619 41.7188C156.166 41.7188 158.291 40.9766 159.994 39.4922L161.869 42.7031C161.181 43.3906 160.127 43.9844 158.705 44.4844C156.923 45.1406 154.939 45.4688 152.752 45.4688C149.595 45.4688 146.916 44.3984 144.713 42.2578C142.259 39.8984 141.033 36.7266 141.033 32.7422C141.033 28.6016 142.291 25.2812 144.806 22.7812C147.056 20.5469 149.72 19.4297 152.798 19.4297C156.377 19.4297 159.181 20.4375 161.213 22.4531C163.181 24.3906 164.166 26.9609 164.166 30.1641C164.166 31.1484 164.048 32.0547 163.814 32.8828ZM153.009 23.1797C151.025 23.1797 149.361 23.8203 148.017 25.1016C146.736 26.3203 146.009 27.8359 145.838 29.6484H159.736C159.736 27.8516 159.173 26.3516 158.048 25.1484C156.814 23.8359 155.134 23.1797 153.009 23.1797ZM187.856 42.1172C186.075 44.3516 183.348 45.4688 179.677 45.4688C177.708 45.4688 175.997 44.7578 174.544 43.3359C173.106 41.8984 172.387 40.1172 172.387 37.9922C172.387 35.4453 173.497 33.2969 175.716 31.5469C177.95 29.7812 180.794 28.8984 184.247 28.8984C185.184 28.8984 186.247 29.1016 187.434 29.5078C187.434 25.4453 185.622 23.4141 181.997 23.4141C179.216 23.4141 177.075 24.1641 175.575 25.6641L173.7 21.9375C174.544 21.25 175.708 20.6641 177.192 20.1797C178.692 19.6797 180.122 19.4297 181.481 19.4297C185.122 19.4297 187.762 20.2578 189.403 21.9141C191.059 23.5703 191.887 26.2031 191.887 29.8125V38.8125C191.887 41.0156 192.544 42.4844 193.856 43.2188V45.4453C192.044 45.4453 190.684 45.1875 189.778 44.6719C188.887 44.1562 188.247 43.3047 187.856 42.1172ZM187.434 32.6719C186.028 32.3594 185.044 32.2031 184.481 32.2031C182.231 32.2031 180.395 32.7812 178.973 33.9375C177.552 35.0938 176.841 36.4609 176.841 38.0391C176.841 40.6484 178.38 41.9531 181.458 41.9531C183.708 41.9531 185.7 40.8828 187.434 38.7422V32.6719ZM207.492 43.1953L205.922 45.4688H203.695V9.60938H208.148V21.75C208.57 21.1719 209.359 20.6406 210.516 20.1562C211.688 19.6719 212.836 19.4297 213.961 19.4297C217.398 19.4297 220.18 20.6172 222.305 22.9922C224.445 25.3672 225.516 28.3672 225.516 31.9922C225.516 36.1797 224.445 39.4766 222.305 41.8828C220.164 44.2734 217.266 45.4688 213.609 45.4688C212.422 45.4688 211.25 45.25 210.094 44.8125C208.953 44.3594 208.086 43.8203 207.492 43.1953ZM208.148 25.1484V39.6328C208.148 39.8828 208.703 40.2969 209.812 40.875C210.922 41.4375 211.766 41.7188 212.344 41.7188C215.375 41.7188 217.547 40.9922 218.859 39.5391C220.172 38.0859 220.828 35.6484 220.828 32.2266C220.828 29.3828 220.062 27.1641 218.531 25.5703C217 23.9766 214.938 23.1797 212.344 23.1797C211.797 23.1797 211.031 23.4141 210.047 23.8828C209.078 24.3516 208.445 24.7734 208.148 25.1484ZM233.62 32.3906C233.62 28.5156 234.659 25.3906 236.738 23.0156C238.831 20.625 241.581 19.4297 244.988 19.4297C248.581 19.4297 251.37 20.5781 253.355 22.875C255.339 25.1562 256.331 28.3281 256.331 32.3906C256.331 36.4375 255.316 39.6328 253.284 41.9766C251.253 44.3047 248.488 45.4688 244.988 45.4688C241.409 45.4688 238.62 44.2891 236.62 41.9297C234.62 39.5703 233.62 36.3906 233.62 32.3906ZM238.308 32.3906C238.308 38.6875 240.534 41.8359 244.988 41.8359C247.066 41.8359 248.691 40.9922 249.863 39.3047C251.05 37.6172 251.644 35.3125 251.644 32.3906C251.644 26.1719 249.425 23.0625 244.988 23.0625C242.956 23.0625 241.331 23.8906 240.113 25.5469C238.909 27.2031 238.308 29.4844 238.308 32.3906ZM270.061 19.8984V35.9062C270.061 39.7812 271.741 41.7188 275.1 41.7188C276.569 41.7188 277.913 41.2969 279.131 40.4531C280.35 39.6094 281.155 38.6328 281.545 37.5234V19.8984H285.998V45H281.545V41.5312C281.045 42.5156 280.038 43.4219 278.522 44.25C277.022 45.0625 275.553 45.4688 274.116 45.4688C271.366 45.4688 269.256 44.6797 267.788 43.1016C266.334 41.5234 265.608 39.2812 265.608 36.375V19.8984H270.061ZM298.486 23.4141H295.58V19.8984H298.486V14.6484L302.939 12.9375V19.8984H309.83V23.4141H302.939V35.8828C302.939 37.9922 303.291 39.4922 303.994 40.3828C304.712 41.2734 305.861 41.7188 307.439 41.7188C308.58 41.7188 309.759 41.4297 310.978 40.8516L311.634 44.7656C309.791 45.2344 307.767 45.4688 305.564 45.4688C303.58 45.4688 301.9 44.7344 300.525 43.2656C299.166 41.7812 298.486 39.9141 298.486 37.6641V23.4141ZM319.083 43.5L320.653 39.2812C323.138 40.9062 325.138 41.7188 326.653 41.7188C329.403 41.7188 330.778 40.5625 330.778 38.25C330.778 36.5938 329.45 35.1719 326.794 33.9844C324.747 33.0469 323.364 32.3359 322.645 31.8516C321.942 31.3672 321.325 30.8203 320.794 30.2109C320.278 29.5859 319.888 28.9297 319.622 28.2422C319.372 27.5391 319.247 26.7891 319.247 25.9922C319.247 23.9297 319.997 22.3203 321.497 21.1641C322.997 20.0078 324.958 19.4297 327.38 19.4297C329.208 19.4297 331.513 20.0078 334.294 21.1641L333.028 25.2891C331.263 23.8828 329.489 23.1797 327.708 23.1797C326.645 23.1797 325.747 23.4297 325.013 23.9297C324.294 24.4297 323.934 25.0625 323.934 25.8281C323.934 27.4375 324.848 28.6562 326.677 29.4844L329.864 30.9375C331.817 31.8281 333.239 32.8438 334.13 33.9844C335.02 35.125 335.466 36.5547 335.466 38.2734C335.466 40.5234 334.677 42.2891 333.098 43.5703C331.52 44.8359 329.333 45.4688 326.536 45.4688C323.895 45.4688 321.411 44.8125 319.083 43.5Z" fill="black"/>
<path d="M2 12C6.34137 22.3333 15.0241 43 15.0241 43L33.7108 22.3333H16.7229L36.5422 43L49 12" stroke="black" stroke-width="4" stroke-linecap="round"/>
</svg>
